<?xml version="1.0" standalone="no"?>
<!DOCTYPE svg PUBLIC "-//W3C//DTD SVG 20010904//EN"
 "http://www.w3.org/TR/2001/REC-SVG-20010904/DTD/svg10.dtd">
<svg version="1.0" xmlns="http://www.w3.org/2000/svg"
 width="512.000000pt" height="512.000000pt" viewBox="0 0 512.000000 512.000000"
 preserveAspectRatio="xMidYMid meet">
<metadata>
Created by potrace 1.14, written by Peter Selinger 2001-2017
</metadata>
<g transform="translate(0.000000,512.000000) scale(0.100000,-0.100000)"
fill="#000000" stroke="none">
<path d="M263 5105 c-141 -38 -219 -120 -252 -265 -7 -30 -10 -780 -8 -2305
l2 -2260 22 -54 c42 -103 86 -148 186 -190 l62 -26 2260 -3 c1984 -2 2267 0
2318 13 106 28 166 69 209 145 62 107 58 -66 55 2419 l-2 2266 -26 62 c-42
100 -87 144 -190 186 l-54 22 -2265 2 c-1928 1 -2273 0 -2317 -12z"/>
</g>
</svg>
